<?xml version="1.0" standalone="no"?>
<!DOCTYPE svg PUBLIC "-//W3C//DTD SVG 20010904//EN"
 "http://www.w3.org/TR/2001/REC-SVG-20010904/DTD/svg10.dtd">
<svg version="1.0" xmlns="http://www.w3.org/2000/svg"
 width="1000.000000pt" height="1000.000000pt" viewBox="0 0 1000.000000 1000.000000"
 preserveAspectRatio="xMidYMid meet">

<g transform="translate(0.000000,1000.000000) scale(0.100000,-0.100000)"
fill="#00eb91" stroke="none">
<path d="M5353 8180 l-1292 -5 -28 -21 c-46 -34 -85 -106 -85 -158 -2 -86 95
-202 322 -387 36 -29 124 -107 195 -174 174 -164 337 -311 530 -480 312 -272
510 -452 817 -742 155 -145 207 -264 130 -294 -42 -17 -173 -12 -269 10 -49
11 -149 32 -223 46 -208 40 -505 110 -840 197 -360 94 -491 126 -660 163 -304
65 -678 152 -955 221 -603 151 -1263 298 -1466 328 -153 23 -195 21 -224 -8
-50 -50 -50 -43 -50 -1056 0 -520 4 -975 8 -1012 10 -81 39 -128 87 -145 26
-9 273 -12 965 -13 512 -1 1058 -5 1215 -9 262 -8 289 -10 337 -31 136 -58
131 -111 -61 -550 -42 -96 -107 -251 -143 -345 -83 -213 -205 -517 -317 -790
-48 -115 -120 -300 -160 -410 -154 -421 -162 -503 -53 -563 29 -15 117 -18
1065 -26 770 -6 1043 -6 1072 3 61 18 95 81 254 466 41 99 118 281 171 405 54
124 106 248 115 275 27 75 150 373 215 520 74 167 111 255 139 330 135 353
262 617 327 681 l39 38 208 7 c114 3 601 4 1082 1 481 -3 902 -2 934 2 53 7
65 13 113 58 71 68 83 108 56 182 -11 29 -86 159 -168 287 -81 129 -189 299
-240 379 -126 200 -630 1004 -684 1093 -97 157 -429 690 -519 832 -192 304
-241 383 -313 505 -41 69 -85 138 -99 153 -30 34 -84 47 -185 44 -38 -1 -651
-4 -1362 -7z"/>
</g>
</svg>
