<?xml version="1.0" encoding="UTF-8"?>
<!DOCTYPE svg PUBLIC "-//W3C//DTD SVG 1.1//EN" "http://www.w3.org/Graphics/SVG/1.1/DTD/svg11.dtd">
<svg xmlns="http://www.w3.org/2000/svg" version="1.1" width="500px" height="500px" style="shape-rendering:geometricPrecision; text-rendering:geometricPrecision; image-rendering:optimizeQuality; fill-rule:evenodd; clip-rule:evenodd" xmlns:xlink="http://www.w3.org/1999/xlink">
<g><path style="opacity:1" fill="#fefefe" d="M -0.5,-0.5 C 166.167,-0.5 332.833,-0.5 499.5,-0.5C 499.5,166.167 499.5,332.833 499.5,499.5C 332.833,499.5 166.167,499.5 -0.5,499.5C -0.5,332.833 -0.5,166.167 -0.5,-0.5 Z"/></g>
<g><path style="opacity:1" fill="#232323" d="M 291.5,40.5 C 293.515,41.9238 295.848,42.5905 298.5,42.5C 371.867,60.3666 423.367,104.033 453,173.5C 456.922,187.116 460.589,200.782 464,214.5C 467.113,232.528 467.113,250.528 464,268.5C 461.241,283.561 453.074,294.395 439.5,301C 425.227,305.574 413.393,302.074 404,290.5C 399.122,284.735 395.289,278.402 392.5,271.5C 392.472,268.084 391.472,265.084 389.5,262.5C 385.542,242.152 385.542,221.818 389.5,201.5C 390.924,199.485 391.59,197.152 391.5,194.5C 393.509,188.137 395.676,181.803 398,175.5C 397.494,168.79 395.494,162.456 392,156.5C 374.279,130.781 351.112,111.614 322.5,99C 306.4,90.9542 289.4,85.7875 271.5,83.5C 262.265,81.4007 252.765,80.4007 243,80.5C 235.286,80.4346 227.786,81.1013 220.5,82.5C 220.167,82.5 219.833,82.5 219.5,82.5C 215.511,82.1164 211.845,82.783 208.5,84.5C 198.851,86.5973 189.351,89.2639 180,92.5C 179.837,94.3867 180.671,95.8867 182.5,97C 185.921,98.6985 188.921,100.865 191.5,103.5C 189.739,104.313 188.072,105.313 186.5,106.5C 143.51,122.491 113.843,151.824 97.5,194.5C 96.0687,195.78 95.4021,197.447 95.5,199.5C 99.3875,199.354 103.054,198.687 106.5,197.5C 108.833,197.5 111.167,197.5 113.5,197.5C 117.989,196.429 122.322,196.429 126.5,197.5C 121.524,207.756 117.524,218.423 114.5,229.5C 113.076,231.515 112.41,233.848 112.5,236.5C 106.077,265.29 105.91,294.29 112,323.5C 116.519,339.2 123.186,353.867 132,367.5C 134,369.5 136,371.5 138,373.5C 142.782,365.592 148.282,358.258 154.5,351.5C 174.515,390.815 206.515,413.482 250.5,419.5C 253.287,420.477 256.287,420.81 259.5,420.5C 259.172,409.654 259.506,398.987 260.5,388.5C 276.139,398.815 293.139,406.149 311.5,410.5C 313.102,412.074 315.102,412.741 317.5,412.5C 318.919,413.451 320.585,413.784 322.5,413.5C 324.515,414.924 326.848,415.59 329.5,415.5C 337.047,417.089 344.714,418.089 352.5,418.5C 360.99,419.33 369.657,419.83 378.5,420C 377.944,420.383 377.611,420.883 377.5,421.5C 359.512,433.827 340.178,443.494 319.5,450.5C 316.848,450.41 314.515,451.076 312.5,452.5C 310.901,452.232 309.568,452.566 308.5,453.5C 305.848,453.41 303.515,454.076 301.5,455.5C 209.394,472.092 135.561,443.092 80,368.5C 69.2794,351.393 60.4461,333.393 53.5,314.5C 53.7406,312.102 53.0739,310.102 51.5,308.5C 47.7056,292.92 45.039,277.253 43.5,261.5C 43.4872,249.155 43.8205,236.822 44.5,224.5C 54.8526,153.919 90.5193,100.419 151.5,64C 169.966,53.5667 189.632,46.4001 210.5,42.5C 215.45,42.2301 220.117,41.2301 224.5,39.5C 246.885,36.6967 269.218,37.03 291.5,40.5 Z"/></g>
<g><path style="opacity:1" fill="#6e6e6e" d="M 224.5,39.5 C 220.117,41.2301 215.45,42.2301 210.5,42.5C 214.883,40.7699 219.55,39.7699 224.5,39.5 Z"/></g>
<g><path style="opacity:1" fill="#858585" d="M 291.5,40.5 C 294.152,40.4095 296.485,41.0762 298.5,42.5C 295.848,42.5905 293.515,41.9238 291.5,40.5 Z"/></g>
<g><path style="opacity:1" fill="#cccccc" d="M 271.5,83.5 C 254.519,82.6065 237.519,82.2732 220.5,82.5C 227.786,81.1013 235.286,80.4346 243,80.5C 252.765,80.4007 262.265,81.4007 271.5,83.5 Z"/></g>
<g><path style="opacity:1" fill="#9e9e9e" d="M 219.5,82.5 C 216.054,83.6874 212.387,84.3541 208.5,84.5C 211.845,82.783 215.511,82.1164 219.5,82.5 Z"/></g>
<g><path style="opacity:1" fill="#a3a3a3" d="M 191.5,103.5 C 192.773,104.077 192.773,104.743 191.5,105.5C 189.929,106.309 188.262,106.643 186.5,106.5C 188.072,105.313 189.739,104.313 191.5,103.5 Z"/></g>
<g><path style="opacity:1" fill="#242424" d="M 242.5,164.5 C 244.509,166.065 246.843,167.065 249.5,167.5C 259.168,170.838 267.168,176.505 273.5,184.5C 269.768,186.131 265.768,187.131 261.5,187.5C 258.8,196.62 253.133,202.953 244.5,206.5C 237.5,207.833 230.5,207.833 223.5,206.5C 212.063,201.323 206.397,192.323 206.5,179.5C 203.219,179.58 200.219,178.913 197.5,177.5C 195.898,175.926 193.898,175.259 191.5,175.5C 189.821,175.108 188.154,174.608 186.5,174C 185.167,173.333 185.167,172.667 186.5,172C 203.922,160.997 222.589,158.497 242.5,164.5 Z"/></g>
<g><path style="opacity:1" fill="#a7a7a7" d="M 242.5,164.5 C 245.491,164.166 247.824,165.166 249.5,167.5C 246.843,167.065 244.509,166.065 242.5,164.5 Z"/></g>
<g><path style="opacity:1" fill="#828282" d="M 375.5,167.5 C 374.001,166.506 372.334,166.506 370.5,167.5C 372.088,165.384 374.088,165.051 376.5,166.5C 376.376,167.107 376.043,167.44 375.5,167.5 Z"/></g>
<g><path style="opacity:1" fill="#232323" d="M 375.5,167.5 C 374.18,170.806 372.347,173.806 370,176.5C 369.235,178.066 369.402,179.399 370.5,180.5C 371.275,185.797 371.608,191.13 371.5,196.5C 368.847,203.491 363.847,207.491 356.5,208.5C 352.558,201.892 347.558,196.225 341.5,191.5C 348.143,179.858 357.809,171.858 370.5,167.5C 372.334,166.506 374.001,166.506 375.5,167.5 Z"/></g>
<g><path style="opacity:1" fill="#7e7e7e" d="M 191.5,175.5 C 193.898,175.259 195.898,175.926 197.5,177.5C 195.102,177.741 193.102,177.074 191.5,175.5 Z"/></g>
<g><path style="opacity:1" fill="#f8aa38" d="M 341.5,191.5 C 347.558,196.225 352.558,201.892 356.5,208.5C 361.555,214.951 364.722,222.284 366,230.5C 370.471,261.905 359.971,286.739 334.5,305C 333.833,305.667 333.167,305.667 332.5,305C 334.207,292.739 329.874,283.073 319.5,276C 302.878,268.861 285.545,264.361 267.5,262.5C 272.348,258.251 277.348,254.251 282.5,250.5C 283.043,250.44 283.376,250.107 283.5,249.5C 261.844,248.5 240.177,248.167 218.5,248.5C 218.5,247.5 218.5,246.5 218.5,245.5C 220.628,242.87 222.961,240.37 225.5,238C 236.472,235.227 247.472,232.56 258.5,230C 283.596,222.952 295.93,206.452 295.5,180.5C 305.273,180.143 314.939,180.977 324.5,183C 330.22,185.86 335.886,188.693 341.5,191.5 Z"/></g>
<g><path style="opacity:1" fill="#aeaeae" d="M 273.5,184.5 C 274.404,185.209 274.737,186.209 274.5,187.5C 270.167,187.5 265.833,187.5 261.5,187.5C 265.768,187.131 269.768,186.131 273.5,184.5 Z"/></g>
<g><path style="opacity:1" fill="#585858" d="M 370.5,180.5 C 372.006,183.356 372.672,186.523 372.5,190C 372.496,192.361 372.163,194.527 371.5,196.5C 371.608,191.13 371.275,185.797 370.5,180.5 Z"/></g>
<g><path style="opacity:1" fill="#666666" d="M 126.5,197.5 C 122.322,196.429 117.989,196.429 113.5,197.5C 116.017,196.027 118.85,195.36 122,195.5C 123.833,195.833 125.667,196.167 127.5,196.5C 127.376,197.107 127.043,197.44 126.5,197.5 Z"/></g>
<g><path style="opacity:1" fill="#b6b6b6" d="M 97.5,194.5 C 97.5,195.5 97.5,196.5 97.5,197.5C 100.5,197.5 103.5,197.5 106.5,197.5C 103.054,198.687 99.3875,199.354 95.5,199.5C 95.4021,197.447 96.0687,195.78 97.5,194.5 Z"/></g>
<g><path style="opacity:1" fill="#909090" d="M 391.5,194.5 C 391.59,197.152 390.924,199.485 389.5,201.5C 389.41,198.848 390.076,196.515 391.5,194.5 Z"/></g>
<g><path style="opacity:1" fill="#6c6c6c" d="M 223.5,206.5 C 230.5,207.833 237.5,207.833 244.5,206.5C 241.305,208.03 237.805,208.696 234,208.5C 230.195,208.696 226.695,208.03 223.5,206.5 Z"/></g>
<g><path style="opacity:1" fill="#4e3d28" d="M 322.5,207.5 C 317.836,208.112 313.503,208.779 309.5,209.5C 310.058,208.21 311.058,207.377 312.5,207C 316.027,206.192 319.36,206.359 322.5,207.5 Z"/></g>
<g><path style="opacity:1" fill="#232222" d="M 322.5,207.5 C 323.708,208.234 325.041,208.567 326.5,208.5C 324.498,221.02 317.165,225.854 304.5,223C 302.189,217.388 303.856,212.888 309.5,209.5C 313.503,208.779 317.836,208.112 322.5,207.5 Z"/></g>
<g><path style="opacity:1" fill="#979797" d="M 114.5,229.5 C 114.59,232.152 113.924,234.485 112.5,236.5C 112.41,233.848 113.076,231.515 114.5,229.5 Z"/></g>
<g><path style="opacity:1" fill="#acacac" d="M 44.5,224.5 C 43.8205,236.822 43.4872,249.155 43.5,261.5C 42.8341,257.012 42.5008,252.346 42.5,247.5C 42.3811,239.615 43.0478,231.948 44.5,224.5 Z"/></g>
<g><path style="opacity:1" fill="#fcd39b" d="M 218.5,245.5 C 218.5,246.5 218.5,247.5 218.5,248.5C 240.177,248.167 261.844,248.5 283.5,249.5C 283.376,250.107 283.043,250.44 282.5,250.5C 261.006,249.503 239.34,249.169 217.5,249.5C 217.232,247.901 217.566,246.568 218.5,245.5 Z"/></g>
<g><path style="opacity:1" fill="#a7a7a7" d="M 389.5,262.5 C 391.472,265.084 392.472,268.084 392.5,271.5C 390.69,268.855 389.69,265.855 389.5,262.5 Z"/></g>
<g><path style="opacity:1" fill="#a0a0a0" d="M 51.5,308.5 C 53.0739,310.102 53.7406,312.102 53.5,314.5C 51.9261,312.898 51.2594,310.898 51.5,308.5 Z"/></g>
<g><path style="opacity:1" fill="#7d7d7d" d="M 260.5,388.5 C 259.506,398.987 259.172,409.654 259.5,420.5C 256.287,420.81 253.287,420.477 250.5,419.5C 253.167,419.5 255.833,419.5 258.5,419.5C 258.168,408.813 258.501,398.146 259.5,387.5C 260.107,387.624 260.44,387.957 260.5,388.5 Z"/></g>
<g><path style="opacity:1" fill="#9a9a9a" d="M 311.5,410.5 C 313.898,410.259 315.898,410.926 317.5,412.5C 315.102,412.741 313.102,412.074 311.5,410.5 Z"/></g>
<g><path style="opacity:1" fill="#9a9a9a" d="M 322.5,413.5 C 325.152,413.41 327.485,414.076 329.5,415.5C 326.848,415.59 324.515,414.924 322.5,413.5 Z"/></g>
<g><path style="opacity:1" fill="#cdcdcd" d="M 352.5,418.5 C 361.5,418.5 370.5,418.5 379.5,418.5C 379.715,420.179 379.048,421.179 377.5,421.5C 377.611,420.883 377.944,420.383 378.5,420C 369.657,419.83 360.99,419.33 352.5,418.5 Z"/></g>
<g><path style="opacity:1" fill="#a0a0a0" d="M 319.5,450.5 C 317.485,451.924 315.152,452.59 312.5,452.5C 314.515,451.076 316.848,450.41 319.5,450.5 Z"/></g>
<g><path style="opacity:1" fill="#9a9a9a" d="M 308.5,453.5 C 306.485,454.924 304.152,455.59 301.5,455.5C 303.515,454.076 305.848,453.41 308.5,453.5 Z"/></g>
</svg>
